<?xml version="1.0" encoding="UTF-8" standalone="no"?>
<svg xmlns="http://www.w3.org/2000/svg" id="Layer_2" viewBox="0 0 161.54 117.72">
  <defs>
    <style>.cls-1{fill:#e60013;}.cls-2{fill:#fff;}.cls-3{fill:#ffe100;}.cls-4{fill:#b60007;}.cls-5{fill:#dc0a2c;}.cls-6{fill:#231916;}.cls-7{fill:#0e141b;}</style>
  </defs>
  <g id="CMYK">
    <g>
      <g>
        <g>
          <g>
            <path class="cls-2" d="M160.23,62.25c0,.52,.56,1.1,.48,1.6-.08,.51-1.12,.78-1.28,1.27-.16,.49-.39,.86-.62,1.31-.23,.46-.39,.86-.69,1.27-.3,.41-.42,.91-.78,1.27-.36,.36-.31,1.23-.72,1.53-.41,.3-1.1,.22-1.56,.46-.45,.23-1,.2-1.49,.36-.48,.16-.89,.59-1.4,.67-.5,.08-1.02,.19-1.54,.19s-1.07,.03-1.57-.05c-.51-.08-.82-.89-1.31-1.05-.49-.16-.9-.31-1.36-.54-.46-.23-1.43,.36-1.84,.06-.41-.3-.76-.81-1.12-1.17-.36-.36,.04-1.36-.26-1.78-.3-.41-.91-.58-1.14-1.03-.23-.45-1.1-.69-1.26-1.18-.16-.48-.26-1.08-.34-1.59-.08-.5,.3-1.09,.3-1.61s-.38-1.12-.3-1.62c.08-.51,.28-1.07,.44-1.55,.16-.49,1.04-.7,1.28-1.15,.23-.46,.75-.67,1.05-1.08,.3-.41-.03-1.34,.33-1.7,.36-.36,.69-.86,1.1-1.16,.41-.3,1.07-.29,1.52-.52,.45-.23,1.02-.18,1.51-.34,.48-.16,.93-.42,1.44-.5,.5-.08,1-.42,1.52-.42s1.04,.27,1.53,.35c.51,.08,.94,.44,1.42,.6,.49,.16,1.22-.21,1.67,.02,.46,.23,.91,.59,1.33,.89,.41,.3,.7,.81,1.07,1.17,.36,.36,.62,.83,.92,1.25,.3,.41,.4,.94,.64,1.4,.23,.45,0,1.04,.16,1.53,.16,.48,.43,.86,.51,1.37,.08,.5,.37,.95,.37,1.47Z"/>
            <path class="cls-6" d="M150.61,73.03c-.35,0-.63-.11-.84-.19-.05-.02-.1-.04-.16-.06-.24-.02-.46-.08-.66-.12-.09-.02-.18-.04-.27-.06-.23-.04-.44-.1-.66-.16,0,0-.01,0-.02,.01-.26,.17-.59,.37-1.01,.37-.15,0-.3-.03-.44-.08-.59-.23-.77-.79-.88-1.13,0-.02-.01-.04-.02-.06-.2-.16-.33-.33-.43-.46-.25,0-.6-.02-.95-.23-.03,0-.06-.01-.1-.01-.26-.04-.67-.1-1.01-.41-.35-.32-.44-.72-.5-.99,0,0,0-.01,0-.02-.01,0-.02-.01-.04-.02-.19-.11-.49-.27-.72-.57-.01,0-.06-.04-.11-.07-.2-.14-.46-.32-.66-.63-.21-.34-.22-.7-.19-.98-.31-.13-.69-.35-.87-.81-.22-.58,.06-1.07,.3-1.41-.14-.17-.28-.4-.34-.7-.06-.3,0-.56,.08-.77-.4-.22-.86-.57-.86-1.21,0-.36,.03-.75,.06-1.05,.05-.58,.48-.92,.74-1.13v-.03c0-.21,0-.48,.08-.78,.11-.38,.35-.64,.51-.82,.02-.03,.05-.05,.07-.08,.01-.04,.02-.11,.03-.17,.03-.17,.07-.41,.17-.65,0-.03,0-.07,0-.1-.01-.27-.03-.68,.22-1.07,.21-.35,.54-.5,.83-.58-.05-.36-.04-.8,.29-1.17,.39-.43,.93-.45,1.25-.46,.02,0,.04,0,.05,0,.13-.1,.26-.2,.4-.3,.07-.05,.14-.1,.21-.16,.31-.23,.64-.27,.83-.28,.07-.36,.23-.8,.71-1.04,.09-.04,.17-.09,.25-.15,.19-.12,.39-.25,.65-.34,.3-.12,.66-.11,1.04-.05,.04,0,.07,.01,.11,.02,.22-.05,.46-.04,.66,0,.19-.37,.51-.88,1.15-.93,.03,0,.09,0,.12,0,.46,0,.8,.23,1.03,.39,.03,.02,.05,.04,.08,.05,.36,.05,.62,.21,.81,.33,.22-.08,.57-.2,.94-.15,.03,0,.07-.02,.12-.03,.26-.06,.67-.13,1.02-.04,.54,.15,.8,.6,.96,.87,.01,.02,.02,.04,.03,.05,.18,.09,.32,.19,.45,.28,.06,.04,.13,.09,.2,.13,.26,.13,.45,.3,.61,.43,.06,.05,.11,.1,.18,.15-.01-.01,.04,0,.08,0,.17,.04,.42,.09,.67,.23h.16c.22,0,.72,0,1.12,.36,.22,.2,.45,.45,.65,.67l.06,.07c.34,.37,.37,.84,.39,1.11,0,.03,0,.05,0,.08,.13,.2,.2,.4,.26,.55,.02,.06,.04,.11,.07,.17,.03,.02,.06,.04,.09,.07,.16,.12,.38,.29,.55,.56,.03,.01,.05,.03,.08,.04,.26,.15,.65,.38,.83,.85,.1,.27,.14,.53,.17,.75,.01,.09,.02,.19,.04,.27,.07,.25,.1,.5,.13,.71,.01,.1,.03,.2,.04,.3,.08,.42-.05,.78-.13,1.01-.01,.04-.03,.08-.04,.11,.01,.26-.02,.49-.06,.67-.01,.08-.03,.16-.03,.24,0,.09,.01,.18,.02,.26,.03,.2,.06,.45,.03,.73-.03,.37-.19,.66-.3,.85-.03,.04-.05,.09-.07,.13,0,.05-.02,.14-.03,.23-.03,.2-.06,.43-.13,.68-.07,.25-.17,.47-.25,.66-.03,.08-.07,.16-.1,.25,0,.01,0,.06,0,.11,0,.22-.03,.55-.19,.88-.15,.29-.35,.49-.5,.64l-.03,.02c.03,.3,.07,.79-.26,1.22-.26,.35-.62,.48-.88,.57-.06,.28-.15,.66-.48,.95-.18,.17-.52,.37-1.07,.32-.08,.3-.23,.63-.59,.86-.25,.16-.51,.23-.72,.3-.08,.02-.16,.04-.23,.08-.33,.16-.79,.15-1.09,.09-.17,.19-.42,.43-.81,.55-.25,.07-.49,.09-.7,.12-.09,0-.19,.02-.29,.03-.34,.06-.69-.01-.91-.06-.02,0-.05-.01-.07-.02-.02,0-.03,.02-.05,.03-.21,.12-.53,.29-.95,.29Zm-2.66-2.66c.09,0,.24,.02,.33,.04l.23,.07c.17,.05,.35,.11,.53,.14,.13,.03,.26,.06,.39,.09,.12,.03,.25,.06,.38,.08,.28,.03,.51,.12,.68,.18,.02,0,.04,.02,.06,.03,0,0,.02-.01,.03-.01,.18-.1,.45-.25,.8-.28,.03,0,.12,0,.15,0,.25,0,.46,.05,.62,.09,.04,0,.07,.02,.11,.03,.13-.02,.26-.03,.39-.05,.09-.01,.17-.02,.24-.03,0-.01,.02-.02,.03-.03,.15-.17,.38-.42,.73-.55,.34-.13,.78-.09,1.05-.03,.01,0,.03,0,.04,0,.13-.05,.25-.09,.36-.12,.05-.3,.16-.75,.55-1.05,.27-.2,.6-.29,1.02-.25,.06-.2,.16-.41,.33-.61,.21-.23,.46-.35,.67-.43-.01-.26,.01-.59,.21-.91,.13-.21,.29-.37,.41-.5,.03-.04,.07-.06,.1-.1,0-.03,0-.06,0-.1,0-.2,.02-.46,.13-.75,.04-.11,.09-.22,.14-.32,.06-.14,.12-.27,.16-.41,.04-.14,.05-.27,.07-.41,.02-.12,.04-.25,.06-.37,.06-.3,.19-.53,.28-.7,.02-.03,.04-.06,.05-.1,0-.06-.01-.15-.02-.23-.02-.18-.04-.35-.04-.53,0-.22,.03-.42,.06-.57,.01-.08,.03-.2,.03-.24-.03-.37,.08-.67,.15-.89,.01-.03,.02-.06,.03-.09-.01-.09-.03-.19-.04-.28-.02-.15-.03-.3-.07-.43-.05-.17-.08-.36-.1-.55,0-.04-.01-.09-.02-.13h0c-.21-.13-.54-.32-.74-.67-.03-.02-.06-.04-.09-.07-.17-.12-.39-.3-.57-.58-.12-.2-.19-.39-.25-.54-.03-.07-.07-.17-.09-.2-.27-.35-.29-.75-.31-1.02v-.04c-.1-.1-.19-.21-.29-.3h-.1c-.2,0-.6,0-.97-.25-.03,0-.07-.01-.1-.02-.2-.04-.47-.09-.74-.26-.16-.1-.3-.21-.44-.33-.07-.06-.15-.13-.19-.15-.17-.08-.32-.18-.47-.29-.08-.05-.17-.12-.2-.14-.39-.15-.61-.44-.75-.68-.17,.04-.39,.07-.61,.04-.02,.01-.05,.02-.08,.03-.18,.07-.44,.16-.75,.16-.03,0-.1,0-.13,0-.38-.03-.67-.21-.86-.33-.02-.01-.05-.03-.07-.04-.18-.02-.35-.08-.49-.14-.19,.31-.46,.62-.92,.71-.31,.06-.65,0-.85-.05l-.09-.02c-.25,.05-.53,.03-.81-.02-.02,0-.04,0-.07-.01-.07,.04-.15,.08-.22,.13-.03,.02-.05,.03-.08,.04-.05,.35-.14,.92-.66,1.24-.29,.18-.65,.23-1.07,.2h0s-.05,.04-.08,.06c-.13,.09-.27,.19-.39,.3-.21,.19-.44,.28-.66,.32,.04,.32,.02,.68-.23,1.01-.26,.34-.62,.47-.92,.52,0,.2-.04,.44-.16,.67-.02,.05-.02,.12-.04,.19-.03,.17-.06,.38-.15,.6-.12,.31-.32,.52-.46,.68l-.05,.06s0,.11,0,.16c0,.17,0,.38-.04,.61-.1,.51-.47,.81-.72,1.01h-.01c0,.05,0,.1,0,.14,.41,.21,1.02,.52,1.09,1.22,.03,.37-.09,.67-.21,.89,.13,.16,.29,.37,.37,.65,.11,.4,0,.74-.15,1.02,.19,.12,.37,.29,.49,.53,.19,.38,.15,.75,.12,1.02,.15,.1,.33,.24,.5,.43,.04,.02,.08,.04,.12,.06,.17,.1,.41,.23,.62,.46,.23,.25,.33,.55,.38,.78,.18,.03,.4,.08,.62,.2,.25,0,.65-.01,1.04,.23,.29,.18,.47,.42,.58,.58,.02,.02,.03,.05,.05,.07,.24,.14,.39,.34,.5,.54,.17-.07,.36-.12,.57-.12Z"/>
          </g>
          <g>
            <path class="cls-3" d="M26.56,82.83c0,21.14,21.48,34.04,47.47,34.04s46.96-13.15,46.96-35.18-21.32-38.87-47.08-38.87c-19.7,0-47.34,12.07-47.34,40.01Z"/>
            <path class="cls-3" d="M95.78,49.46c8.13-19.75,23.98-35.33,32.76-40.78,1.64,3,5.21,8.95,1.56,28.12-4.95,6.85-15.92,18.27-22.95,22.71-7.03,4.45-13.24-5.46-11.37-10.04Z"/>
            <path class="cls-7" d="M146.35,1.19c1.85,1.81-3.14,16.56-16.31,35.72,1.44-7.41,2.26-22.97-1.6-28.17,4.82-3.54,15.95-9.47,17.9-7.55Z"/>
            <path class="cls-7" d="M95.84,46.94c-.24,.51,1.4,1.53,1.61,1.23C113.83,13.43,143.31,.27,145.45,2.02c1.18,.97-4.26,26.82-35.47,54.64-.15,.13,.74,1.55,.92,1.41C143.3,31.46,149.81,2.28,146.83,.37c-4.44-2.84-33.48,10.35-50.99,46.57Z"/>
            <path class="cls-7" d="M127.64,9.11c2.56,4.23,3.1,16.64,1.8,27.78-.08,.72,1.75-1.45,1.84-1.97,1.73-9.63,1.15-22.89-2.17-26.98-.19-.24-1.58,.98-1.47,1.17Z"/>
            <path class="cls-3" d="M51.7,49.46C43.57,29.71,27.71,14.12,18.93,8.67c-1.64,3-5.21,8.95-1.56,28.12,4.95,6.85,15.92,18.27,22.95,22.71,7.03,4.45,13.24-5.46,11.37-10.04Z"/>
            <path class="cls-7" d="M1.13,1.19c-1.85,1.81,3.14,16.56,16.31,35.72-1.44-7.41-2.26-22.97,1.6-28.17C14.21,5.2,3.08-.74,1.13,1.19Z"/>
            <path class="cls-7" d="M51.64,46.94c.24,.51-1.4,1.53-1.61,1.23C33.65,13.43,4.16,.27,2.03,2.02c-1.18,.97,4.41,26.74,35.62,54.56,.15,.12-.89,1.62-1.07,1.48C4.18,31.46-2.33,2.28,.65,.37,5.09-2.47,34.13,10.72,51.64,46.94Z"/>
            <path class="cls-7" d="M19.84,9.11c-2.56,4.23-3.1,16.64-1.8,27.78,.08,.72-1.75-1.45-1.84-1.97-1.73-9.63-1.15-22.89,2.17-26.98,.19-.24,1.58,.98,1.47,1.17Z"/>
            <path class="cls-7" d="M121.86,83.4c.31-10.9-3.86-19.66-11-26.63-1.65-1.61-2.33-.84-.51,1.28,5.7,6.63,9.35,14.62,9.14,25.54-.32,16.69-17.28,32.16-45.96,32.16s-44.63-16.04-45.59-32.5c-.57-9.64,4.19-19.07,8.95-24.76,2.62-3.11,1.25-3.37-1.09-1.03-5.14,5.13-10.64,15.21-10.55,25.71,.17,18.44,18.71,34.57,48.28,34.57,31.16,0,47.82-16.19,48.33-34.32Z"/>
            <path class="cls-7" d="M98.62,48.18c-6.93-4.69-16.7-6.37-25.01-6.37s-18.26,1.91-24.96,6.52c-2.1,1.44-1.85,2.47,.78,1.03,7.7-4.2,16.97-5.27,24.63-5.27,8.05,0,16.81,1.11,23.75,4.98,2.15,1.2,3.27,.78,.81-.88Z"/>
            <path class="cls-1" d="M33.97,82.69c4.14-1.72,9.44,2.56,11.42,7.51,2.23,5.58,1.12,11.99-2.48,13.36-3.48,1.33-8.51-2.29-10.88-8.48-1.81-4.69-1.5-10.95,1.94-12.39Z"/>
            <path class="cls-1" d="M115.02,81.24c3.25,1.24,3.92,7.92,1.4,13.72-2.63,6.06-7.29,10.29-11.34,8.7-3.51-1.37-4.74-7.92-1.93-13.89,3.52-7.48,8.65-9.75,11.88-8.54Z"/>
          </g>
          <g>
            <path class="cls-5" d="M112.63,29.97s3.04,6.59,3.88,8.79c.85,2.19,3.89,14.36,3.89,14.36l-2.35,2.16-37.31-4.78-42.08-4.48,.79-8.95s3.01-3.71,3.71-4.4c.84-.81,29.6-22.61,38.8-23.85,4.89-.66,15.76,2.31,26.9,6.81,9.88,3.98,23.86,12.01,26.3,14.15,1.51,1.33,6.47,7.55,10.12,14.6,2.18,4.24,4.74,12.17,4.1,12.71-.43,.36-10.3-5.12-11.26-5.32-.94-.19-16.9-3.47-17.74-3.43s-3.43-2.33-3.43-2.33"/>
            <path class="cls-6" d="M149.4,58.12c-.73,0-2.27-.74-7.2-3.27-1.73-.89-3.88-1.99-4.28-2.11-6.57-1.35-16.16-3.27-17.43-3.4,.49,1.92,.85,3.36,.89,3.52,.09,.36-.02,.74-.29,.98l-2.35,2.16c-.22,.2-.51,.3-.81,.25l-37.31-4.78-42.06-4.47c-.55-.06-.94-.54-.89-1.09l.79-8.95c.02-.2,.09-.39,.22-.54,.31-.38,3.07-3.78,3.79-4.49,.99-.95,29.75-22.83,39.37-24.12,5.76-.78,17.94,3.04,27.41,6.87,10.19,4.11,24.08,12.13,26.59,14.32,1.7,1.49,6.74,7.92,10.35,14.89,1.03,2.01,2.25,5.03,3.18,7.9,1.68,5.21,1.12,5.67,.68,6.05-.19,.16-.36,.27-.64,.27Zm-29.51-11.08c.24,.15,.43,.26,.54,.29,1.4,.07,12.93,2.42,17.91,3.45,.49,.1,1.69,.7,4.77,2.28,1.64,.84,3.9,2,5.25,2.62-.49-2.33-2.26-7.55-3.96-10.85-3.69-7.12-8.64-13.19-9.89-14.3-2.36-2.07-16.18-10-26.01-13.97-11.6-4.7-21.96-7.35-26.39-6.75-8.85,1.19-37.16,22.59-38.25,23.58-.45,.44-2.23,2.59-3.43,4.07l-.68,7.66,41.1,4.37,36.87,4.72,1.56-1.43c-.32-1.29-.72-2.87-1.15-4.5-.55-.4-1.16-.91-1.84-1.54-.41-.38-.44-1.01-.06-1.42m0,0c.27-.3,.69-.39,1.05-.28"/>
          </g>
          <g>
            <path class="cls-2" d="M33.91,60.72c-.7,.22-.65-.1-1.4-.45-.42-.19-.67-.76-1.09-1.03-.44-.29-1.09-.32-1.33-.69-.14-.23,.18-.88,.16-1.7-.01-.48-.19-1.03-.16-1.65,.03-.52-.5-1.12-.44-1.71,.05-.53,.58-1.04,.66-1.61,.07-.54,.13-1.1,.23-1.66,.09-.54,.51-1.03,.63-1.58,.12-.54,.33-1.05,.47-1.59,.14-.55,.25-1.08,.41-1.6,.17-.54,.43-1.02,.63-1.53,.21-.54,.16-1.14,.4-1.62,.26-.52,.68-.88,.98-1.32,.34-.49,.49-1.03,.88-1.37,.4-.35,.65-1.09,1.23-1.39,.48-.26,1.14-.33,1.73-.55,.52-.2,1.2-.03,1.8-.2,.54-.16,1.09-.4,1.69-.54,.56-.13,1.03-.81,1.63-.92,.57-.11,1.21,.11,1.81,.02,.57-.09,1.24,.42,1.84,.34,.58-.07,1.1-.65,1.7-.71,.58-.06,1.18-.07,1.78-.12,.58-.05,1.2,.3,1.8,.26,.59-.04,1.17-.08,1.77-.11,.59-.03,1.17-.28,1.76-.3,.59-.02,1.17-.49,1.76-.51,.59-.02,1.19-.01,1.78-.02,.59,0,1.19-.22,1.78-.22,.6,0,1.19,.62,1.79,.63,.6,0,1.2-.33,1.78-.32,.6,.01,1.18,.31,1.77,.33,.54,.02,1.13-.51,1.74-.5,.55,.01,1.11,.44,1.71,.45,.55,.01,1.12,.31,1.72,.32,.56,.02,1.12,.19,1.72,.21,.56,.02,1.14-.18,1.73-.16,.56,.02,1.13,.14,1.72,.17,.56,.03,1.17-.5,1.76-.46,.56,.04,1.09,.78,1.67,.82,.56,.04,1.17-.33,1.75-.27,.56,.05,1.09,.54,1.67,.6,.56,.06,1.21-.51,1.79-.44,.56,.07,1.17-.08,1.75,0,.56,.08,1.07,.6,1.65,.69,.56,.09,1.16,0,1.73,.11,.56,.1,1.11,.3,1.68,.41,.56,.11,1.18-.03,1.75,.09,.56,.12,.99,.82,1.56,.95,.56,.13,1.16,.08,1.72,.22,.55,.14,1.19-.01,1.75,.14,.55,.15,1.08,.4,1.64,.56,.55,.16,1.15,.19,1.7,.36,.55,.17,1.09,.37,1.64,.56,.54,.18,1.12,.3,1.66,.5,.54,.19,.92,.82,1.47,1.03,.54,.2,1.16,.19,1.7,.4,.53,.21,1.04,.49,1.58,.72,.53,.23,1.05,.47,1.58,.71,.52,.24,.98,.63,1.5,.88,.52,.25,1.16,.23,1.68,.49,.82,.4,.36,.78,1.31,1.36,.45,.27,1,.51,1.55,.91,.46,.33,.96,.66,1.45,1.07,.44,.38,.93,.72,1.37,1.17,.42,.42,.75,.92,1.14,1.39,.38,.46,.55,1.04,.88,1.56,.32,.51,1.07,.77,1.33,1.32,.25,.54,.61,1.09,.78,1.68,.16,.57,.35,1.2,.42,1.82,.07,.59-.64,1.21-.67,1.83-.03,.59,0,1.19-.01,1.76,0,.59,.38,1.18,.38,1.75,0,.6-.26,1.19-.25,1.75,.01,.6,.46,1.18,.47,1.74,.01,.61-.19,1.2-.19,1.75,0,.63-.09,1.2-.14,1.73-.06,.67,.21,1.34,.06,1.81-.23,.67-.87,.84-1.41,.98-.68,.17-1.19,.58-1.67,.73-1.12,.37-1.09,1.39-1.89,.99-.76-.37-.17-.98-.48-1.97-.15-.47-.12-1.08-.34-1.68-.18-.5,.03-1.2-.19-1.75-.2-.52-1.13-.76-1.36-1.29-.23-.52-.41-1.05-.66-1.56-.26-.52-.62-.94-.91-1.42-.3-.51-.54-.99-.87-1.42-.23-.3-.28-1.16-.98-1.52-.44-.23-.99-.5-1.6-.75-.49-.2-1.14-.14-1.73-.34-.51-.18-1.04-.44-1.62-.62-.52-.17-1.09-.29-1.67-.46-.53-.16-1.02-.58-1.59-.74-.54-.15-1.27,.33-1.84,.18-.54-.14-1.15-.06-1.73-.2-.55-.13-.95-.93-1.52-1.06-.55-.13-1.17,0-1.75-.12-.55-.12-1.09-.38-1.66-.51-.55-.12-1.14-.12-1.72-.24-.56-.12-1.08-.45-1.65-.57-.56-.11-1.19,.1-1.76-.01-.56-.11-1.06-.59-1.63-.69-.56-.1-1.16-.04-1.73-.15-.56-.1-1.16-.02-1.74-.12-.56-.1-1.17,0-1.74-.09-.56-.09-1.03-.83-1.6-.93-.56-.09-1.18,.1-1.75,0-.57-.09-1.16-.04-1.73-.13-.57-.09-1.09-.53-1.66-.61-.57-.08-1.22,.38-1.79,.3-.57-.08-1.14-.15-1.72-.22-.57-.08-1.06-.8-1.63-.87-.57-.07-1.18,.09-1.75,.02-.57-.07-1.14-.17-1.71-.24-.57-.07-1.21,.4-1.78,.34-.57-.06-1.06-.88-1.64-.94-.57-.06-1.2,.34-1.77,.28-.57-.06-1.13-.37-1.7-.42-.58-.05-1.17,.06-1.74,.01-.58-.05-1.14-.19-1.72-.23-.58-.05-1.13-.37-1.71-.41-.58-.04-1.18,.3-1.76,.26-.58-.04-1.14-.28-1.72-.31-.58-.04-1.16-.08-1.73-.11-.58-.03-1.19,.53-1.76,.51-.58-.03-1.12-.81-1.7-.83-.58-.02-1.19,.65-1.76,.63-.58-.02-1.14-.74-1.71-.75-.58-.01-1.16-.11-1.74-.12-.58,0-1.03,.81-1.6,.8-.78,.28-.51,.05-1.27,.81-.33,.32-.45,.95-.88,1.42-.34,.37-1.04,.47-1.43,.93-.33,.39-.46,1-.83,1.46-.33,.41-1.24,.4-1.59,.86-.32,.42-.58,.93-.91,1.4-.31,.43-.55,.95-.87,1.42-.3,.45-.39,1.04-.69,1.52Z"/>
            <path class="cls-6" d="M120.36,74.36c-.26,0-.48-.09-.68-.17-.41-.18-.66-.45-.75-.82-.05-.22-.04-.44,.05-.66-.26-.19-.56-.46-.7-.88-.14-.42-.04-.81,.02-1.09v-.02c-.23-.18-.58-.44-.74-.89-.11-.29-.13-.57-.15-.8,0-.09-.02-.23-.03-.27-.15-.37-.12-.73-.1-1,0-.05,0-.1,.01-.15-.03-.03-.08-.07-.12-.12-.17-.17-.39-.4-.54-.72-.06-.13-.15-.25-.23-.38-.11-.18-.23-.35-.32-.53-.15-.31-.2-.61-.23-.85-.01-.08-.02-.16-.04-.23-.02-.03-.12-.14-.21-.23-.11-.11-.22-.23-.33-.37-.03,0-.07-.02-.11-.02-.31-.08-.79-.19-1.11-.61-.16-.21-.23-.44-.25-.64-.32,.07-.71,.05-1.01-.1-.42-.2-.61-.57-.72-.9-.33,.13-.76,.2-1.12,.06-.58-.21-.79-.76-.93-1.12l-.02-.06s-.08-.01-.12-.02c-.21-.03-.44-.07-.69-.15-.05,.01-.11,.01-.17,.02-.33,.02-.66,.01-.93-.07h-.2c-.32,.02-.63,0-.88-.07-.33-.1-.58-.27-.77-.41-.06-.05-.16-.12-.2-.13-.37-.1-.64-.34-.84-.52-.04-.03-.07-.07-.11-.1-.05,0-.11,.01-.16,.01-.24,.02-.49,.04-.7,0l-.1,.05c-.31,.15-.82,.36-1.3,.24-.54-.14-.81-.57-.99-.92-.28,.11-.66,.2-1.01,.11-.09-.02-.22-.03-.36-.04-.21-.01-.45-.03-.71-.09-.14-.03-.29-.05-.44-.07-.21-.03-.41-.06-.62-.1-.54-.12-.84-.54-1.04-.81-.02-.03-.04-.05-.06-.08-.1-.02-.21-.04-.31-.06-.18-.03-.37-.07-.55-.11l-.89-.19-.09,.05c-.29,.14-.76,.34-1.23,.24-.39-.08-.67-.29-.88-.44-.05-.04-.1-.08-.15-.11-.29-.06-.52-.18-.71-.28-.06-.03-.15-.08-.21-.1-.04,.01-.08,.03-.13,.04-.27,.08-.66,.17-1.04,.1-.45-.09-.75-.38-.96-.6-.24,.12-.54,.26-.91,.26-.06,0-.19-.01-.25-.02-.15-.03-.31-.04-.46-.06-.2-.02-.4-.04-.6-.08-.08,0-.16,.01-.24,.03-.29,.04-.58,.06-.86,.01-.27-.05-.5-.13-.7-.21-.13-.05-.25-.1-.34-.11-.58-.1-.89-.54-1.1-.86-.26,.08-.61,.16-.95,.1-.35-.06-.63-.22-.84-.33-.07-.04-.13-.08-.2-.11-.14-.02-.3-.04-.46-.05-.19-.02-.39-.04-.58-.07-.14-.02-.29-.03-.43-.03-.22-.01-.43-.02-.64-.05-.27-.04-.5-.13-.71-.2-.07-.03-.15-.05-.21-.07-.03,.01-.06,.03-.09,.04-.24,.12-.56,.29-.97,.29-.05,0-.16,0-.21-.02-.48-.07-.81-.36-1.02-.56-.02-.02-.04-.04-.06-.05-.04,0-.08,.02-.12,.03-.2,.04-.47,.09-.75,.08-.04,.02-.08,.04-.12,.06-.24,.12-.56,.28-.96,.28-.04,0-.15,0-.19-.01-.35-.05-.64-.2-.85-.31-.07-.04-.13-.08-.21-.1-.03,0-.11,.03-.18,.05-.24,.05-.57,.11-.89,.07-.38-.05-.68-.22-.89-.35-.06-.04-.12-.08-.19-.1-.28-.03-.55-.15-.76-.25-.08-.03-.19-.09-.23-.1-.37-.04-.67-.22-.89-.34-.04-.02-.08-.05-.11-.07-.03,.01-.06,.03-.1,.04-.21,.08-.51,.2-.86,.2-.04,0-.14,0-.18-.01-.27-.03-.51-.1-.71-.17-.06-.02-.11-.04-.16-.05-.02,.01-.04,.03-.05,.04-.26,.19-.63,.44-1.12,.44-.04,0-.11,0-.14,0-.51-.06-.86-.38-1.09-.59-.03-.03-.06-.06-.09-.08-.15-.02-.3-.05-.46-.08-.11-.02-.21-.04-.32-.06-.03,.02-.07,.04-.1,.06-.25,.14-.58,.32-1.01,.32-.03,0-.1,0-.14,0-.17-.02-.35-.03-.52-.04-.18-.01-.37-.02-.55-.04-.21-.02-.41-.06-.62-.09-.15-.03-.3-.06-.45-.07-.25-.02-.48-.08-.68-.12-.13-.03-.26-.06-.39-.08-.28-.02-.52-.09-.72-.15-.13-.04-.26-.07-.34-.08h-.07c-.1,0-.21,0-.31,.02-.24,.02-.47,.04-.71,.02-.04,0-.11,.04-.18,.06-.21,.06-.47,.14-.78,.14-.02,0-.1,0-.13,0-.42-.03-.75-.23-.98-.38-.03-.02-.06-.04-.09-.06-.03,.01-.07,.03-.11,.04-.22,.08-.51,.19-.86,.19-.02,0-.09,0-.11,0-.2-.01-.39-.04-.59-.06-.16-.02-.32-.04-.48-.05-.31-.02-.57-.1-.78-.17-.1-.03-.23-.08-.29-.08-.35-.02-.63-.14-.85-.23-.08-.03-.19-.08-.23-.08-.02,0-.14,.04-.22,.06-.21,.06-.47,.13-.76,.13-.01,0-.07,0-.09,0-.22-.01-.44-.05-.67-.09-.14-.03-.27-.05-.41-.06-.39-.02-.7-.17-.93-.28-.04-.02-.07-.04-.11-.05-.03,.02-.06,.03-.09,.05-.24,.12-.57,.28-.98,.28-.08,0-.15,.04-.22,.06-.22,.08-.51,.19-.86,.19-.48-.01-.81-.2-1.05-.34-.04-.02-.08-.04-.11-.06-.05,.01-.12,.04-.18,.05-.22,.07-.49,.15-.82,.15-.37,0-.65-.1-.88-.18-.08-.03-.2-.07-.24-.07-.31,0-.6-.09-.85-.17-.1,.15-.23,.32-.43,.51-.19,.18-.39,.29-.57,.4-.11,.06-.22,.13-.29,.19-.02,.04-.04,.1-.05,.15-.08,.23-.2,.55-.44,.84-.02,.04-.03,.1-.04,.15-.08,.26-.18,.62-.46,.94-.13,.15-.29,.29-.45,.44-.11,.1-.23,.2-.33,.31-.27,.33-.63,.46-.92,.53,.04,.37,.06,.85-.26,1.27-.19,.25-.41,.41-.59,.55-.08,.06-.2,.15-.23,.19-.11,.15-.23,.3-.36,.44-.11,.13-.22,.26-.32,.4-.01,.04-.03,.11-.04,.19-.06,.23-.14,.55-.35,.85-.13,.2-.26,.4-.4,.6l-.2,.3c-.28,.43-.7,.58-.98,.68-.04,.01-.07,.03-.11,.04-.13,.14-.29,.25-.48,.3l-.18,.05c-.2,.06-.4,.12-.66,.12-.32,0-.59-.09-.96-.25-.48-.2-.71-.63-.86-.92-.03-.05-.05-.11-.08-.16-.3-.18-.49-.42-.64-.59-.04-.05-.08-.1-.12-.14-.04,0-.09-.01-.13-.02-.31-.05-.89-.13-1.24-.67-.23-.36-.26-.78-.31-1.37v-.14c-.04-.36,.07-.66,.14-.89,.03-.08,.07-.2,.07-.25,0-.29,.06-.54,.12-.75,.02-.08,.04-.16,.05-.24-.01-.03-.03-.06-.05-.09-.13-.25-.33-.63-.29-1.11,.02-.3,.11-.55,.18-.76,.04-.12,.08-.23,.09-.3,.01-.11,0-.22,0-.33-.02-.21-.03-.47,0-.75,0-.04-.01-.17-.03-.25-.03-.23-.07-.52-.02-.85,0-.05-.02-.12-.03-.2-.04-.23-.1-.55-.04-.91,.06-.33,.2-.6,.31-.81,.04-.07,.1-.18,.11-.22,.1-.51,.46-.82,.7-1.02,.02-.02,.04-.03,.06-.05,0-.05,0-.11,0-.17,0-.22,0-.49,.08-.79,0-.04,0-.18,0-.27,0-.23,0-.52,.09-.83,.1-.33,.26-.58,.4-.77,.04-.07,.11-.17,.13-.21,.11-.33,.29-.57,.44-.75h0c-.21-.37-.52-.93-.25-1.55,.14-.32,.35-.55,.51-.74,.06-.06,.14-.16,.16-.2,.22-.42,.58-.64,.82-.79h0v-.03c-.02-.34-.05-.85,.3-1.28,.27-.33,.61-.5,.86-.63,.07-.04,.15-.07,.2-.11,.06-.05,.13-.12,.2-.2,.19-.19,.43-.43,.73-.63,.08-.05,.17-.12,.26-.19,.2-.16,.44-.35,.74-.5,.28-.14,.56-.2,.79-.24,.13-.03,.26-.05,.33-.08,.05-.02,.16-.09,.24-.15,.2-.13,.45-.3,.76-.41,.42-.14,.91-.02,1.23,.09,.04,.01,.08,.03,.12,.04,.19-.05,.38-.1,.58-.15l.22-.05s.05-.06,.08-.09c.2-.22,.51-.56,1-.66,.25-.06,.48-.07,.69-.09,.13-.01,.27-.02,.4-.04,.04-.01,.16-.07,.24-.11,.21-.11,.47-.23,.8-.29,.27-.05,.56-.03,.85,.01,.08,.01,.16,.02,.25,.02,.09-.01,.16-.02,.23-.02,.4,0,.72,.17,.95,.29,.04,.02,.07,.04,.11,.05,.1-.02,.21-.03,.31-.05,.21-.03,.41-.07,.62-.1,.13-.01,.26-.05,.39-.08,.2-.05,.42-.11,.67-.13,.02,0,.13-.05,.2-.09,.21-.1,.5-.23,.85-.26,.31-.03,.62,.03,.84,.08,.09,.02,.2,.04,.25,.04,.25-.02,.51,0,.76,.04,.09,.01,.17,.03,.26,.03,.04-.02,.08-.05,.12-.08,.23-.14,.55-.34,.98-.36,.36-.02,.71-.05,1.07-.07,0-.01,.05-.05,.12-.08,.23-.12,.54-.28,.94-.3,.15,0,.31-.02,.46-.04,.2-.02,.41-.04,.62-.05h0c.56,0,.93,.31,1.19,.59,.24-.19,.55-.39,.97-.39,.02-.01,.08-.05,.15-.08,.23-.1,.54-.24,.92-.24,.31,.03,.52,.04,.72,.07,.12,.02,.24,.04,.35,.04,.13,0,.26-.02,.39-.04,.21-.03,.44-.07,.7-.07,.53,0,.9,.3,1.16,.51,.24-.13,.57-.3,.98-.3,.46,0,.81,.21,1.05,.35,.04,.02,.09,.05,.13,.07,.23,.01,.44,.05,.62,.09,.12,.02,.24,.05,.36,.05,.28,0,.54,.07,.74,.12,.04,.01,.07,.02,.11,.03l.02-.02c.26-.24,.66-.6,1.23-.6,.49,.01,.83,.24,1.06,.38,.04,.03,.08,.06,.12,.08,.26,.02,.48,.08,.67,.14,.1,.03,.23,.07,.29,.07h.09c.12,0,.24,0,.37,0,.15,0,.3-.01,.45-.01h.16c.07,0,.19-.02,.3-.04,.18-.03,.39-.08,.63-.09,.03-.02,.07-.04,.1-.06,.24-.15,.61-.38,1.07-.38h.51c.2,.02,.41,.02,.61,.03,.61,.02,.98,.45,1.23,.73h0s.02,0,.03,0c.21-.05,.46-.12,.76-.12,.02,0,.08,0,.1,0,.17,0,.28,0,.39-.02,.17-.02,.35-.03,.52-.03,.03-.02,.06-.04,.09-.06,.25-.17,.67-.44,1.18-.4,.39,.03,.7,.19,.92,.31,.06,.03,.12,.07,.19,.09,.05,0,.14-.03,.24-.04,.22-.04,.5-.08,.79-.05,.44,.03,.76,.27,.98,.47,.25-.2,.6-.42,1.05-.42,.03,0,.09,0,.13,0,.57,.06,.92,.46,1.16,.73,.02,.02,.03,.04,.05,.05h.19c.2,0,.39-.01,.59,0,.04-.02,.08-.04,.13-.06,.22-.1,.53-.23,.9-.23,.04,0,.15,0,.19,.01,.47,.06,.8,.35,1.02,.53,.03,.03,.07,.06,.1,.09,.3,.06,.54,.2,.73,.29,.05,.03,.1,.06,.15,.08,.03-.01,.08-.03,.12-.04,.23-.07,.58-.17,.94-.13,.05-.01,.1-.03,.16-.05,.26-.08,.64-.19,1.03-.12,.2,.03,.4,.08,.6,.12,.15,.03,.3,.06,.46,.09,.2,.04,.4,.09,.6,.13,.15,.03,.3,.07,.45,.1,.43,.08,.73,.34,.94,.52,.29-.15,.75-.33,1.21-.24,.44,.09,.75,.37,.95,.56,.01,.01,.03,.03,.04,.04,.02,0,.04-.01,.06-.02,.27-.07,.68-.14,1.04-.06,.42,.1,.7,.35,.91,.53,.04,.03,.07,.07,.11,.1,.07,0,.17,.01,.26,.02,.21,0,.48,.01,.76,.09,.2,.05,.4,.11,.59,.18,.15,.05,.29,.09,.44,.14l.43,.11c.21,.05,.41,.11,.62,.16,.05,.02,.19,.02,.29,.02,.22,0,.5,.02,.8,.11,.32,.1,.56,.26,.76,.4,.07,.04,.17,.12,.21,.13,.33,.1,.59,.3,.77,.44,.06,.04,.12,.1,.19,.13,.24,.08,.45,.19,.64,.29,.11,.06,.21,.12,.33,.16,.19,.06,.38,.14,.58,.21,.14,.06,.28,.11,.43,.16,.22,.08,.44,.16,.66,.24l.35,.13s.17,.03,.26,.03c.23,.02,.51,.04,.82,.16l.15-.02c.08,0,.16,0,.24,0,.18,0,.45,.01,.73,.12,.2,.08,.39,.18,.58,.27,.13,.07,.26,.13,.4,.19,.32,.13,.55,.34,.73,.49,.06,.05,.15,.13,.18,.15,.19,.08,.38,.18,.56,.28,.13,.07,.26,.14,.39,.2-.02-.01,.04-.02,.09-.02h.11c.2,0,.56,0,.92,.16,0,0,.08-.01,.15-.01,.26,0,.61,.01,.97,.18,.31,.15,.52,.35,.7,.52,.06,.06,.15,.14,.19,.17,.11,.05,.24,.09,.36,.13,.19,.07,.42,.14,.64,.26,.53,.26,.71,.69,.79,.96,.29,0,.7,.03,1.09,.28,.18,.12,.37,.25,.56,.4,.11,.08,.23,.17,.35,.25,.03,.01,.1,.03,.17,.04,.25,.07,.58,.16,.89,.4,.44,.33,.52,.83,.56,1.2,.31,.03,.7,.1,1.03,.41,.26,.24,.4,.51,.52,.73,.04,.08,.1,.19,.13,.22,.19,.19,.33,.39,.46,.57,.05,.07,.1,.14,.15,.21,.04,0,.07,.02,.11,.03,.31,.08,.77,.21,1.09,.63,.16,.21,.31,.45,.46,.68,.06,.1,.12,.19,.18,.28,.16,.24,.27,.49,.36,.7,.05,.12,.1,.23,.16,.34,.15,.27,.23,.55,.29,.78,.03,.11,.06,.22,.11,.32,.17,.38,.31,.76,.42,1.08,.03,.05,.08,.11,.13,.18,.15,.21,.36,.5,.46,.87,.07,.29,.1,.58,.13,.84,.01,.11,.03,.23,.04,.33,.08,.57-.21,.99-.4,1.28h0c.13,.25,.32,.62,.3,1.09-.01,.21-.04,.43-.08,.64-.02,.14-.05,.27-.05,.41,0,.09,.02,.22,.04,.36,.03,.2,.07,.44,.07,.7,0,.17,0,.33,.02,.5,.01,.19,.02,.37,.02,.56,0,.33-.08,.62-.15,.84-.02,.08-.06,.2-.06,.24,0,.3-.06,.57-.11,.78,0,.04-.02,.09-.03,.13,.01,.02,.03,.03,.04,.05,.22,.25,.54,.62,.55,1.16,0,.36-.09,.67-.17,.89-.02,.08-.05,.15-.06,.22,0,.13,.02,.27,.04,.42,.02,.22,.04,.44,.04,.65,0,.46-.2,.81-.34,1.05-.02,.04-.05,.08-.07,.12-.02,.32-.11,.58-.18,.78-.03,.08-.06,.19-.07,.23,0,.01,.03,.12,.05,.18,.06,.24,.16,.61,.06,1.02-.12,.5-.35,.83-.51,1.08l-.13,.21c-.21,.32-.49,.77-1.19,.95-.34,.09-.65,.09-.9,.09-.1,0-.25,0-.29,.01-.09,.03-.23,.13-.37,.22-.18,.13-.39,.27-.65,.37-.08,.03-.12,.05-.12,.05-.09,.1-.37,.41-.87,.41Zm-.09-3.19s.01,.01,.02,.01c.2,.14,.48,.33,.66,.64,.22-.15,.5-.32,.85-.43,.46-.14,.91-.07,1.2-.11,.02-.03,.04-.06,.06-.09l.16-.25c.1-.16,.16-.25,.2-.36,0-.04-.02-.07-.03-.1-.06-.23-.14-.54-.1-.91,.03-.26,.1-.48,.16-.66,.04-.12,.08-.24,.08-.3,.02-.41,.19-.72,.32-.95,.03-.05,.06-.09,.08-.14,0-.12-.02-.25-.03-.37-.02-.2-.04-.41-.04-.62,0-.34,.09-.62,.17-.85,0-.03,.02-.05,.03-.08,0,0-.01-.01-.02-.02-.22-.25-.55-.64-.56-1.19,0-.3,.06-.57,.11-.78,.03-.11,.06-.24,.06-.3,0-.33,.08-.62,.15-.85,.02-.08,.06-.2,.07-.25,0-.14,0-.29-.02-.44-.01-.21-.02-.42-.02-.64,0-.08-.02-.21-.04-.35-.03-.21-.08-.47-.07-.75,0-.26,.05-.49,.08-.7,.02-.11,.04-.21,.05-.32-.02-.04-.04-.08-.06-.12-.12-.22-.28-.53-.3-.91-.02-.51,.24-.9,.42-1.16,.01-.02,.03-.05,.05-.07,0-.06-.02-.12-.02-.19-.03-.22-.05-.43-.09-.59,0,0-.08-.1-.13-.17-.13-.18-.3-.41-.4-.7-.1-.28-.22-.61-.35-.92-.1-.21-.16-.42-.21-.6-.04-.14-.08-.28-.12-.35-.09-.16-.17-.33-.24-.51-.07-.16-.14-.31-.2-.41-.07-.1-.14-.21-.2-.32-.09-.14-.17-.28-.27-.41-.03-.01-.07-.02-.1-.03-.28-.08-.71-.19-1.03-.55-.12-.14-.23-.29-.34-.44-.09-.12-.17-.24-.28-.35-.22-.23-.35-.47-.46-.67-.01-.02-.03-.05-.04-.08-.01,0-.02,0-.04,0-.31-.02-.77-.04-1.15-.37-.45-.37-.51-.92-.53-1.29-.23-.06-.51-.14-.77-.33-.14-.1-.27-.19-.4-.29-.13-.1-.26-.19-.39-.28-.05,0-.1,0-.15,0h-.02c-.26,0-.61,0-.96-.21-.56-.32-.75-.76-.83-1.05-.06-.02-.13-.04-.19-.06-.21-.07-.41-.14-.6-.24-.3-.15-.51-.35-.68-.51-.05-.04-.11-.11-.16-.14-.04,0-.08,0-.13,0h-.04c-.24,0-.57-.01-.9-.15-.04,0-.09,0-.13,0h-.11c-.19,0-.54,0-.9-.16-.18-.08-.36-.17-.53-.26-.14-.07-.27-.15-.41-.21-.31-.13-.53-.33-.71-.48-.06-.05-.15-.13-.18-.15-.17-.07-.35-.16-.52-.25-.14-.07-.28-.14-.42-.2l-.15,.02c-.08,0-.16,0-.24,0-.17,0-.43-.01-.71-.12-.04-.01-.18-.02-.27-.03-.22-.02-.5-.04-.79-.15l-.36-.13c-.21-.08-.42-.16-.63-.23-.17-.06-.33-.12-.5-.19-.16-.06-.32-.13-.48-.18-.25-.08-.45-.19-.63-.29-.13-.07-.24-.13-.33-.16-.33-.11-.58-.3-.76-.44-.06-.04-.12-.1-.18-.13-.29-.09-.53-.25-.72-.38-.07-.05-.17-.12-.21-.13-.04-.01-.18-.02-.29-.02-.22,0-.49-.01-.77-.1-.19-.05-.38-.1-.57-.15-.15-.04-.3-.08-.45-.12-.18-.05-.35-.11-.53-.16-.16-.05-.32-.11-.48-.15-.07-.02-.2-.02-.33-.03-.21,0-.46-.01-.73-.08-.41-.1-.69-.35-.9-.53-.02-.02-.04-.03-.06-.05-.03,0-.05,.02-.08,.02-.27,.07-.66,.14-1.02,.06-.41-.09-.7-.34-.9-.53-.29,.15-.74,.33-1.19,.24-.44-.09-.75-.37-.96-.55-.03-.03-.07-.06-.1-.09-.15-.03-.3-.07-.45-.1-.16-.04-.32-.08-.48-.11-.17-.03-.35-.07-.52-.1-.16-.03-.31-.06-.46-.09-.04,.01-.09,.03-.15,.05-.25,.08-.59,.17-.95,.13-.05,.01-.11,.03-.16,.05-.25,.08-.62,.18-.98,.12-.35-.05-.63-.2-.84-.32-.07-.04-.13-.08-.19-.1-.44-.06-.76-.34-.98-.52h0c-.22,.1-.52,.23-.89,.23-.04,0-.13,0-.17-.01-.06,0-.13,0-.19,0h-.21c-.22,0-.44,.01-.65-.01-.46-.05-.77-.32-1-.56-.27,.2-.65,.41-1.1,.37-.52-.05-.87-.37-1.11-.59-.02-.01-.03-.03-.05-.04-.06,0-.11,.01-.16,.02-.22,.03-.48,.08-.76,.05-.39-.03-.7-.19-.92-.31-.01,0-.02-.01-.03-.02,0,0-.01,0-.02,.01-.25,.17-.66,.43-1.15,.4h-.07c-.11,0-.23,0-.34,.02-.22,.02-.44,.03-.66,.02-.04,0-.16,.03-.24,.06-.2,.05-.46,.12-.75,.12-.02,0-.07,0-.08,0-.61-.03-.99-.45-1.23-.74-.02-.02-.03-.04-.05-.06-.11,0-.21,0-.32,0h-.36s-.07,.04-.11,.06c-.24,.15-.6,.38-1.06,.38-.11-.01-.24,.02-.36,.05-.19,.04-.43,.08-.69,.08h-.16c-.13,0-.25,0-.38,0-.15,0-.29,0-.44,0h-.14c-.32,0-.58-.09-.8-.15-.09-.02-.22-.06-.26-.06-.41,0-.73-.19-.97-.33-.25,.23-.62,.53-1.14,.53-.32,0-.56-.07-.76-.12-.12-.03-.25-.06-.33-.06-.26,0-.48-.05-.69-.09-.14-.03-.27-.05-.37-.05-.44,0-.77-.2-1.01-.34-.01,0-.03-.02-.04-.03l-.04,.03c-.25,.13-.58,.32-1.02,.32-.55,0-.93-.32-1.18-.53-.02-.02-.04-.04-.06-.05-.07,.01-.14,.02-.22,.03-.2,.03-.43,.06-.68,.07h0c-.28,0-.5-.04-.7-.07-.12-.02-.24-.04-.35-.04-.03,.01-.09,.04-.16,.08-.18,.08-.42,.18-.7,.23-.03,.02-.06,.05-.09,.08-.25,.22-.62,.55-1.16,.57h0c-.67,0-1.07-.45-1.33-.75-.02-.02-.03-.04-.05-.06-.07,0-.14,.01-.21,.02-.17,.02-.34,.03-.52,.04-.05,.02-.11,.05-.16,.08-.23,.12-.54,.27-.92,.3-.33,.02-.66,.04-.99,.06-.05,.02-.09,.05-.14,.08-.23,.14-.54,.33-.96,.36-.25,.02-.5,0-.75-.04-.1-.01-.19-.03-.29-.03-.08,0-.14,0-.19,0-.25,0-.48-.05-.66-.08-.09-.02-.2-.04-.25-.04-.02,0-.13,.06-.2,.09-.22,.1-.48,.22-.82,.26-.14,.01-.28,.05-.41,.09-.21,.05-.41,.1-.62,.12-.18,.02-.36,.05-.53,.08-.17,.03-.33,.06-.5,.08-.05,0-.15,.01-.19,.01-.4,0-.73-.16-.97-.29-.04-.02-.07-.04-.11-.06-.22,.02-.45,0-.67-.04-.08-.01-.16-.02-.24-.02-.05,0-.18,.07-.26,.11-.2,.1-.44,.22-.74,.28-.21,.04-.42,.06-.63,.08-.1,0-.2,.01-.29,.03-.03,.03-.05,.06-.08,.09-.19,.21-.49,.52-.94,.64l-.37,.09c-.21,.05-.42,.1-.62,.16-.42,.12-.9,0-1.21-.11-.02,0-.04-.01-.05-.02-.05,.03-.11,.07-.15,.1-.17,.12-.37,.25-.62,.35-.25,.1-.49,.15-.68,.19-.1,.02-.26,.05-.31,.08-.1,.05-.24,.16-.37,.26-.15,.12-.29,.23-.44,.33-.11,.07-.24,.2-.38,.34-.1,.1-.21,.21-.31,.3-.2,.18-.43,.29-.61,.39-.02,.01-.05,.02-.07,.04,.02,.31,.03,.76-.23,1.17-.21,.34-.51,.52-.73,.66-.04,.03-.09,.05-.13,.08-.12,.21-.27,.38-.4,.52,.2,.36,.49,.89,.26,1.48-.12,.31-.3,.54-.44,.71-.05,.06-.1,.11-.13,.17-.09,.27-.24,.5-.36,.68-.05,.07-.12,.17-.13,.21,0,.03,0,.17,0,.26,0,.21,0,.49-.07,.78-.01,.06-.02,.18-.02,.3,0,.2,0,.46-.07,.73-.11,.5-.46,.8-.7,1-.03,.02-.06,.04-.08,.07-.07,.24-.18,.43-.27,.6-.04,.07-.1,.18-.11,.22,0,0,.03,.12,.04,.2,.04,.23,.09,.52,.04,.85,0,.04,.01,.18,.03,.27,.03,.21,.07,.48,.03,.78-.01,.09,0,.22,0,.37,.01,.2,.03,.42,0,.67-.03,.29-.11,.54-.18,.74-.02,.06-.04,.14-.06,.19,.02,.04,.04,.07,.05,.1,.13,.25,.3,.58,.28,1.01-.01,.29-.08,.54-.13,.73-.02,.09-.05,.21-.05,.26,0,.37-.1,.67-.18,.9-.02,.05-.03,.09-.05,.14v.08c.01,.07,.02,.16,.03,.24,.25,.04,.55,.13,.83,.34,.21,.16,.36,.34,.48,.48,.06,.06,.13,.16,.16,.18,.43,.23,.65,.65,.8,.92,.01,.03,.03,.05,.04,.08h.02c.24-.2,.51-.3,.7-.37,.03,0,.05-.02,.08-.03l.11-.17c.14-.22,.28-.43,.42-.64,0-.02,.04-.14,.06-.21,.06-.24,.14-.56,.35-.86,.13-.19,.28-.37,.43-.54,.09-.11,.19-.22,.27-.34,.2-.28,.44-.46,.63-.6,.02-.01,.04-.03,.06-.04,0-.02,0-.04,0-.06-.05-.37-.13-.94,.25-1.41,.33-.42,.81-.54,1.13-.62,.04-.01,.08-.02,.11-.03,.15-.16,.29-.29,.43-.41,.1-.08,.19-.17,.27-.26,0-.02,.01-.1,.04-.17,.07-.26,.17-.61,.45-.9,0-.02,.05-.14,.08-.21,.09-.24,.2-.56,.47-.84,.26-.27,.55-.44,.76-.56,.07-.04,.14-.08,.19-.12,.11-.11,.15-.17,.2-.26,.16-.28,.39-.6,.98-.82,.11-.04,.23-.06,.35-.06,.33,0,.61,.09,.87,.17,.1,.03,.25,.08,.31,.08,.33,0,.62,.1,.84,.18,.08,.03,.2,.07,.24,.07,.02,0,.14-.04,.22-.06,.22-.07,.5-.15,.82-.15,.48,.01,.81,.2,1.05,.34,.04,.02,.07,.04,.11,.06,.04-.02,.08-.03,.13-.05,.21-.08,.5-.18,.84-.18,.05-.02,.1-.05,.15-.07,.24-.12,.57-.28,.98-.28,.45,.02,.76,.17,.99,.28,.06,.03,.13,.07,.19,.09,.2,0,.42,.04,.62,.08,.13,.02,.27,.05,.4,.06,.03,0,.15-.03,.23-.06,.21-.05,.47-.12,.77-.12,.02,0,.08,0,.1,0,.35,.02,.63,.13,.86,.23,.07,.03,.19,.08,.23,.08,.29,.01,.56,.1,.77,.17,.1,.03,.23,.07,.29,.08,.2,.01,.41,.04,.61,.06,.16,.02,.31,.04,.47,.05,0-.01,.07-.04,.14-.06,.21-.08,.51-.19,.86-.19,.02,0,.09,0,.11,0,.43,.03,.75,.23,.99,.38,.04,.02,.07,.05,.11,.07,.04-.01,.09-.03,.15-.05,.21-.06,.47-.14,.78-.14,.03,0,.11,0,.13,0,.17,0,.27,0,.37-.02,.24-.02,.48-.04,.72-.02,.28,.02,.53,.09,.73,.15,.13,.04,.25,.07,.33,.08,.26,.02,.48,.08,.69,.12,.13,.03,.25,.06,.38,.08,.21,.02,.42,.06,.63,.09,.15,.03,.29,.06,.44,.07,.17,.01,.33,.03,.49,.04,.15,0,.3,.02,.46,.03,.04-.02,.07-.04,.11-.06,.24-.13,.58-.32,1.01-.32,.03,0,.11,0,.14,0,.21,.02,.42,.06,.63,.1,.15,.03,.29,.06,.44,.07,.45,.05,.77,.3,1,.51,.25-.17,.59-.37,1.02-.37,.04,0,.11,0,.15,0,.28,.03,.52,.11,.72,.17,.1,.03,.2,.06,.28,.08,.05-.01,.09-.04,.14-.05,.21-.08,.51-.2,.86-.2,.04,0,.14,0,.18,.01,.39,.04,.69,.22,.91,.35,.06,.04,.12,.08,.19,.1,.28,.03,.55,.15,.77,.25,.08,.04,.19,.09,.23,.1,.38,.05,.68,.22,.89,.35,.05,.03,.1,.06,.15,.08,.05,0,.14-.02,.2-.04,.24-.05,.57-.11,.9-.07,.36,.05,.65,.2,.86,.31,.03,.02,.07,.04,.1,.05,.02-.01,.04-.02,.06-.03,.23-.12,.56-.28,.96-.28,.05,0,.15,0,.2,.01,.02,0,.13-.02,.21-.04,.24-.05,.57-.11,.9-.06,.46,.06,.78,.34,1,.54,.23-.12,.55-.27,.93-.27,.05,0,.16,0,.21,.02,.28,.04,.52,.13,.72,.2,.13,.04,.25,.09,.33,.1,.14,.02,.29,.03,.43,.03,.22,.01,.44,.02,.65,.06,.16,.03,.32,.04,.47,.06,.2,.02,.4,.04,.6,.07,.36,.06,.64,.22,.85,.34,.05,.03,.1,.06,.15,.08,.04-.01,.08-.03,.13-.04,.27-.08,.65-.19,1.03-.13,.61,.1,.93,.59,1.14,.91,.02,.03,.04,.06,.06,.09,.16,.04,.31,.1,.44,.15,.13,.05,.25,.1,.33,.11,.09,0,.16-.01,.24-.03,.29-.04,.59-.06,.86-.01,.15,.03,.31,.04,.46,.06,.15,.02,.3,.03,.44,.05,.03-.02,.07-.04,.1-.05,.24-.13,.58-.31,.99-.31,.06,0,.19,.01,.25,.02,.51,.1,.83,.45,1.04,.68h0s.01,0,.02,0c.27-.08,.66-.17,1.04-.1,.32,.06,.57,.19,.77,.29,.08,.04,.2,.11,.25,.11,.4,.08,.69,.29,.9,.45l.03,.02s.01,0,.02,0c.29-.14,.76-.34,1.23-.24l1.06,.22c.16,.03,.32,.06,.49,.09,.19,.04,.39,.07,.58,.11,.55,.12,.86,.54,1.06,.82,.02,.02,.03,.05,.05,.07,.08,.01,.17,.03,.25,.04,.21,.03,.42,.06,.63,.11,.09,.02,.23,.03,.37,.04,.17,0,.35,.02,.55,.05,.04-.02,.07-.03,.11-.05,.3-.14,.78-.32,1.24-.21,.54,.13,.81,.55,.99,.9,.29-.12,.69-.22,1.05-.12,.07,0,.14-.01,.22-.02,.33-.03,.64-.03,.91,.04,.41,.11,.69,.36,.89,.54,.04,.04,.08,.08,.13,.11,.32,.1,.57,.28,.75,.41,.06,.04,.12,.09,.19,.12-.02-.02,.13,0,.21-.01,.08,0,.16,0,.24,0,.15,0,.38,0,.63,.08,.09,0,.15,0,.21-.01,.34-.02,.65,0,.91,.08,.13,.04,.26,.06,.39,.08,.21,.03,.45,.08,.69,.16,.48,.16,.73,.55,.88,.89,.35-.16,.82-.26,1.22-.09,.52,.21,.74,.69,.86,1.08,.37-.1,.85-.12,1.2,.1,.56,.35,.69,.93,.72,1.33,.33,.09,.78,.24,1.06,.68,.04,.05,.13,.15,.21,.23,.17,.17,.38,.39,.54,.67,.18,.32,.23,.66,.27,.91,.01,.08,.03,.2,.04,.24,.05,.1,.13,.21,.2,.32,.12,.18,.26,.39,.37,.64,.03,.04,.09,.09,.15,.15,.17,.18,.41,.42,.56,.76,.17,.4,.14,.78,.12,1.05,0,.06-.01,.12-.01,.17,.11,.3,.13,.58,.15,.81,0,.05,0,.11,.01,.16,.03,.02,.06,.04,.09,.07,.23,.17,.58,.44,.74,.89,.16,.45,.07,.87,0,1.16Z"/>
          </g>
          <path class="cls-2" d="M120.4,70.51l2.62-11.08-48.48-11.08-36.66,.19-4.36,3.97-.36,4.72,3.53-.35s7.66-.52,13.36-.89c5.7-.37,43.1-.8,59.91,7.59,4.28,2.14,10.43,6.92,10.43,6.92Z"/>
          <path class="cls-6" d="M119.4,72.3c-.32,0-.64-.15-.83-.44-.15-.22-.24-.45-.32-.63-.04-.1-.1-.23-.13-.27-.1-.12-.19-.25-.28-.38-.1-.15-.2-.29-.32-.43-.01,0-.12-.06-.18-.1-.2-.11-.46-.24-.69-.47-.26-.26-.39-.56-.48-.79-.02-.06-.04-.12-.07-.17-.13-.12-.26-.26-.39-.41-.07-.08-.15-.16-.21-.23-.04,0-.07,0-.11-.01-.28-.03-.69-.07-1.06-.34-.38-.29-.53-.7-.63-.98v-.04s-.05,0-.08-.01c-.24-.04-.56-.11-.87-.3-.3-.19-.5-.45-.64-.63-.03-.04-.06-.08-.09-.11-.04,0-.08,0-.11,0-.27-.01-.63-.02-.99-.22-.22-.12-.4-.25-.55-.37-.12-.09-.23-.17-.32-.22-.05-.03-.18-.06-.3-.08-.2-.04-.46-.1-.71-.22-.15-.07-.3-.14-.45-.22-.16-.08-.33-.17-.49-.24-.16-.07-.33-.13-.49-.19-.16-.06-.32-.12-.49-.18-.26-.11-.48-.26-.65-.37-.1-.07-.21-.15-.27-.17-.14-.05-.28-.09-.42-.12-.2-.05-.4-.1-.59-.17-.13-.05-.26-.07-.4-.1-.21-.04-.42-.09-.62-.16-.42-.14-.69-.45-.87-.67-.28,.09-.7,.21-1.15,.07-.15-.04-.3-.07-.46-.1-.19-.04-.38-.08-.58-.13-.44-.12-.72-.43-.91-.62-.02-.03-.05-.05-.07-.08-.06,0-.13,0-.18,0-.23,0-.51,.01-.82-.06-.02,0-.09,.02-.16,.03-.24,.03-.57,.08-.93,0-.54-.13-.83-.55-1.02-.86-.24,.07-.55,.14-.9,.09-.05,.01-.1,.03-.16,.04-.26,.08-.62,.17-1.03,.09l-.39-.08c-.21-.05-.43-.09-.65-.13-.37-.07-.65-.25-.85-.38-.06-.04-.12-.08-.18-.11-.26-.05-.51-.16-.71-.26-.08-.04-.21-.1-.26-.11-.26-.04-.48-.12-.67-.19-.1-.03-.19-.07-.27-.09-.04,.01-.08,.03-.12,.05-.25,.1-.64,.25-1.08,.19-.39-.06-.68-.25-.9-.39-.05-.04-.1-.07-.15-.1-.29-.05-.53-.15-.72-.23-.09-.04-.22-.09-.26-.1-.26-.03-.49-.11-.69-.17-.08-.02-.15-.05-.21-.06-.03,.01-.05,.03-.08,.04-.27,.16-.68,.4-1.19,.33-.21-.02-.41-.07-.62-.11-.15-.03-.29-.06-.44-.08-.02,.01-.09,.04-.16,.06-.24,.07-.56,.17-.93,.13-.49-.05-.83-.35-1.06-.55-.26,.12-.61,.27-1.05,.23-.35-.03-.64-.17-.85-.26-.07-.03-.14-.07-.21-.09-.27-.02-.53-.11-.73-.17-.1-.04-.24-.08-.29-.08-.17-.01-.33-.02-.5-.02-.16,0-.33,0-.49-.02-.05,.02-.09,.04-.14,.06-.25,.11-.6,.27-1.03,.24-.27-.02-.51-.08-.71-.13-.13-.03-.26-.07-.34-.07-.29-.02-.55-.09-.75-.16-.07-.02-.16-.04-.22-.06-.04,.02-.07,.04-.11,.06-.24,.13-.6,.32-1.06,.3-.5-.03-.86-.3-1.09-.49-.03-.02-.06-.05-.09-.07-.16-.02-.33-.04-.49-.06-.11-.02-.21-.03-.32-.04-.04,.02-.07,.04-.11,.06-.24,.14-.61,.35-1.08,.34-.06,0-.19,.02-.32,.05-.21,.04-.47,.1-.75,.09-.38-.01-.7-.16-.93-.26-.06-.03-.12-.06-.19-.08-.45,0-.81-.28-1.06-.46-.03-.02-.06-.04-.08-.06-.12,0-.25,0-.37,0-.11,0-.23,0-.34,0-.03,.02-.05,.05-.08,.07-.26,.23-.61,.59-1.21,.57-.2,0-.39-.01-.58-.02-.16,0-.33-.02-.48-.02-.31,0-.58-.07-.8-.13-.09-.02-.22-.06-.27-.06-.08,0-.22,.03-.36,.06-.21,.05-.45,.1-.72,.09-.25,0-.49-.03-.71-.06-.13-.02-.25-.03-.36-.04-.12,0-.25,.02-.38,.03-.21,.03-.44,.05-.7,.05-.16,0-.33,0-.49,0-.19,0-.39,0-.59,0l-1.08-.02c-.13,0-.27,.02-.4,.03-.22,.03-.46,.04-.68,.04-.47,0-.82-.24-1.06-.39-.04-.03-.07-.05-.11-.07-.1,0-.2,.02-.3,.03-.2,.03-.43,.05-.68,.05-.31,0-.58-.08-.79-.14-.1-.03-.24-.06-.29-.06-.02,0-.13,.04-.21,.07-.22,.08-.5,.19-.87,.18-.05,.01-.12,.04-.2,.07-.22,.08-.52,.19-.88,.19h0c-.46,0-.82-.21-1.05-.36-.04-.03-.08-.05-.12-.07-.15,0-.28,0-.42,0-.15,0-.31,0-.46,0-.04,.02-.08,.05-.12,.08-.23,.14-.58,.36-1.03,.37-.41,.02-.75-.14-.99-.25-.05-.02-.1-.05-.15-.07-.39,0-.7-.15-.93-.25-.05-.02-.1-.05-.15-.07-.14,.01-.29,.03-.43,.05-.15,.02-.3,.04-.45,.05-.04,.03-.07,.06-.11,.08-.23,.18-.58,.44-1.05,.48-.4,.03-.74-.09-.98-.19-.03-.01-.06-.02-.09-.03-.03,.02-.06,.04-.08,.06-.22,.15-.53,.35-.94,.4-.52,.06-.93-.18-1.2-.34,0,0-.01,0-.02-.01-.02,.01-.04,.02-.06,.04-.19,.12-.45,.27-.78,.34-.05,.03-.09,.07-.14,.11-.2,.16-.48,.37-.86,.45l-.15,.03c-.29,.06-.56,.12-.82,.2-.13,.04-.27,.1-.43,.18-.15,.07-.3,.15-.46,.21-.18,.07-.34,.16-.52,.27-.09,.05-.17,.1-.26,.15-.36,.2-.73,.21-1.02,.19-.03,.15-.06,.29-.1,.42-.16,.53-.73,.83-1.26,.66-.53-.17-.83-.73-.66-1.26,.02-.06,.03-.13,.04-.21,.06-.35,.16-.87,.58-1.28,.46-.45,1.04-.39,1.39-.35,.05,0,.1,.01,.15,.01,.04-.02,.07-.04,.11-.06,.23-.14,.48-.29,.83-.42,.1-.04,.19-.09,.29-.13,.2-.1,.46-.23,.76-.31,.3-.09,.61-.16,.94-.23l.09-.02s.08-.06,.12-.1c.21-.16,.53-.41,.96-.48,.02-.01,.08-.06,.14-.09,.22-.14,.53-.32,.92-.38,.52-.07,.94,.17,1.21,.33,0,0,0,0,.01,0h0c.24-.16,.56-.38,1-.42,.4-.03,.75,.09,.99,.18,.02,.01,.05,.02,.07,.03,.01,0,.03-.02,.04-.03,.24-.18,.59-.45,1.08-.48,.15,0,.3-.03,.45-.05,.22-.03,.43-.05,.65-.06,.41-.02,.76,.13,1.01,.25,.05,.03,.11,.05,.16,.07,.39,0,.71,.15,.94,.25,.02,.01,.05,.02,.07,.03,.02-.01,.04-.02,.06-.04,.24-.14,.59-.36,1.05-.37,.2,0,.41,0,.61,0,.16,0,.32,0,.48,0,.47,0,.83,.21,1.07,.36,.03,.02,.06,.03,.08,.05,.04-.02,.1-.03,.14-.05,.22-.08,.52-.19,.88-.19h0s.14-.04,.22-.07c.23-.08,.53-.15,.87-.18,.32,0,.59,.08,.81,.14,.1,.03,.24,.06,.29,.06,.13,0,.26-.02,.39-.04,.2-.03,.43-.05,.68-.05,.47,0,.84,.25,1.08,.4,.04,.02,.07,.05,.1,.07,.11,0,.21-.02,.31-.03,.22-.03,.45-.04,.67-.04l1.08,.02c.18,0,.35,0,.53,0,.18,0,.37,0,.55,0,.14,0,.28-.02,.42-.03,.22-.03,.45-.05,.65-.05,.18,0,.38,.03,.58,.05,.15,.02,.31,.04,.48,.04h0s.18-.03,.28-.05c.22-.04,.49-.09,.8-.1,.29,0,.54,.07,.75,.12,.12,.03,.25,.07,.32,.07,.18,0,.37,.01,.56,.02,.09,0,.19,.01,.29,.01,.02-.02,.04-.03,.06-.05,.27-.24,.65-.62,1.25-.59,.15,0,.31,0,.46,0,.2,0,.41,0,.61,0,.49,.01,.86,.28,1.1,.46,.04,.03,.07,.06,.11,.08,.31,.04,.57,.15,.77,.24,.07,.03,.13,.06,.2,.08,.01,0,.14-.03,.25-.05,.18-.04,.41-.08,.66-.09,.04-.02,.08-.04,.11-.07,.25-.14,.62-.36,1.1-.34,.21,0,.42,.04,.64,.07,.14,.02,.29,.04,.43,.05,.49,.02,.84,.29,1.08,.48,.25-.13,.61-.32,1.07-.3,.29,.02,.55,.09,.76,.15,.12,.04,.24,.07,.31,.08,.27,.02,.51,.08,.72,.13,.1,.03,.2,.05,.28,.06,.04-.02,.08-.04,.13-.06,.26-.12,.6-.27,1.04-.25,.15,.01,.31,.01,.46,.01,.21,0,.41,.01,.62,.03,.29,.02,.55,.11,.76,.18,.11,.04,.24,.08,.3,.08,.35,.03,.65,.16,.86,.26,.04,.02,.1,.04,.14,.06,.03-.01,.06-.03,.09-.04,.25-.11,.62-.28,1.07-.24,.5,.05,.85,.36,1.08,.56,.01,0,.02,.02,.03,.03,.02,0,.04-.01,.06-.02,.24-.07,.57-.17,.95-.13,.21,.02,.43,.07,.64,.11,.09,.02,.18,.04,.28,.06,.03-.02,.06-.03,.09-.05,.27-.16,.69-.4,1.21-.34,.27,.04,.5,.11,.7,.17,.13,.04,.26,.08,.35,.09,.31,.04,.57,.15,.78,.24,.09,.04,.22,.09,.27,.1,.39,.06,.69,.25,.91,.39,.03,.02,.05,.04,.08,.05,.02,0,.05-.02,.07-.03,.26-.1,.64-.26,1.1-.18,.27,.04,.5,.12,.7,.19,.12,.04,.23,.09,.35,.11,.31,.05,.57,.17,.77,.27,.08,.04,.21,.1,.26,.11,.37,.07,.66,.25,.87,.39,.06,.04,.12,.08,.18,.11,.18,.03,.41,.08,.63,.12l.32,.07c.05-.01,.1-.03,.15-.04,.25-.07,.58-.16,.97-.1,.05-.01,.1-.03,.15-.04,.27-.08,.65-.19,1.08-.09,.58,.13,.88,.6,1.07,.92,.25-.04,.58-.08,.95,0,.04,0,.18,0,.27,0,.24,0,.53-.02,.84,.07,.45,.12,.74,.43,.93,.63,.03,.03,.06,.07,.09,.1,.11,.03,.22,.05,.33,.07,.17,.03,.34,.07,.51,.11,.04-.01,.08-.03,.12-.04,.29-.09,.72-.23,1.2-.08,.45,.14,.73,.48,.91,.7,.03,.03,.05,.07,.08,.1,.1,.03,.19,.04,.29,.06,.2,.04,.43,.09,.67,.18,.13,.05,.27,.08,.4,.11,.22,.06,.44,.11,.65,.19,.29,.11,.51,.27,.7,.4,.09,.07,.2,.14,.26,.16,.14,.06,.27,.11,.41,.15,.21,.08,.41,.15,.61,.24,.21,.09,.41,.19,.6,.29,.13,.06,.25,.13,.38,.19,.06,.03,.19,.06,.3,.08,.22,.05,.49,.11,.76,.24,.25,.12,.45,.28,.63,.41,.08,.06,.16,.12,.25,.18,.05,0,.11,0,.16,0,.28,.01,.66,.03,1.03,.24,.33,.19,.54,.47,.7,.67,.04,.05,.07,.1,.11,.14,.06,.02,.12,.02,.18,.04,.25,.05,.59,.11,.92,.33,.42,.28,.58,.71,.68,1,.29,.03,.72,.07,1.1,.38,.22,.18,.39,.37,.54,.54,.08,.09,.17,.19,.26,.27,.31,.27,.45,.61,.55,.85,.03,.06,.05,.13,.08,.18-.01-.02,.1,.03,.17,.07,.21,.11,.5,.27,.75,.54,.17,.19,.32,.4,.46,.6,.07,.1,.15,.21,.22,.3,.21,.26,.32,.53,.41,.75,.04,.11,.09,.21,.12,.26,.31,.46,.19,1.08-.26,1.4-.17,.12-.37,.17-.57,.17Z"/>
        </g>
        <path class="cls-6" d="M122.81,47.87c-.44-.08-.88-.16-1.32-.24l-.35-.06-.42-.06-.42-.05-.21-.02h-.1c.26,0,.05-.01,.1-.01h-.13s.01-.02,.02-.02c.01,0,.06,.01,.04,0-.07-.03-.12-.05-.21-.1-.08-.05-.18-.11-.27-.17l-.03-.11c-.12-.49-.28-.99-.42-1.49l-.43-1.49c-.3-.98-.55-2-.9-2.95l-.4-1.15s.02-.07,.03-.1c0,0,.02-.13,.05-.37,.03-.25,.1-.56,.13-1.01,.02-.44,.08-.98,.08-1.5,0-.53,.02-1.09,0-1.65-.06-2.22-.28-4.42-.28-4.42-.02-.17-.16-.31-.34-.32-.2,0-.36,.14-.37,.34,0,0-.02,.54-.09,1.36-.06,.82-.16,1.9-.29,2.98-.05,.54-.16,1.07-.22,1.57h0c-.23-.46-.45-.94-.69-1.41-.46-.92-.89-1.86-1.38-2.75-.48-.9-.96-1.81-1.45-2.7h0c-.07-.13-.22-.19-.36-.14-.15,.06-.23,.23-.17,.37l2.17,5.72c.35,.95,.72,1.89,1.09,2.83l.14,.35s.29,1.06,.38,1.4l.31,1.16c.27,.99,.49,1.96,.73,2.94l.14,.56c-.38-.14-.82-.05-1.1,.27-.37,.41-.34,1.05,.08,1.42,.24,.22,1.58-.38,1.58-.38,0,0,2.65,3.03,2.64,2.98h.01l.13,.02,.26,.04,.26,.04,.33,.06c.62,.11,1.17-.5,1.8-.38l-.15-1.37Z"/>
      </g>
      <path class="cls-7" d="M72.32,82.31c.01-.45,3.11-.46,3.13-.03,.02,.54-1.01,1.13-1.56,1.13s-1.6-.55-1.57-1.1Z"/>
      <path class="cls-4" d="M63.53,91c2.12-.32,3.78-.79,6.2-1.65,1.87-.67,4.31-1.14,6.72-.31,2.42,.84,5.81,1.73,8.19,1.58-.67,8.99-6.22,16.85-10.7,16.85s-10.1-8.31-10.4-16.47Z"/>
      <path class="cls-1" d="M65.57,99.47c1.81-1.29,5.71-2.31,8.27-2.2,3.45,.16,6.89,.91,8.48,2.21-2.18,4.71-5.52,7.98-8.39,7.98s-6.29-3.4-8.36-7.99Z"/>
      <path class="cls-7" d="M81.49,98.29c-4.81-2.5-10.57-2.5-15.12,.02-1.3,.71-1.04,1.75,.27,1.15,4.17-1.9,10.06-1.88,14.52,.06,1.36,.59,1.69-.52,.33-1.22Z"/>
      <path class="cls-7" d="M87.6,88.24c-.95,1.21-1.85,1.63-4.24,1.63-1.62,0-6.75-1.8-9.48-1.8-2.41,0-7.86,1.72-9.39,1.72-2.01,0-3.14-.67-4.02-1.85-.8-1.07-1.74-.46-1.05,.67,1.19,1.96,2.96,3.03,5.07,3.03,1.97,0,6.65-1.73,9.39-1.73s7.12,1.79,9.57,1.79c3.13,0,4.41-1.09,5.21-2.99,.77-1.86,.09-1.94-1.06-.47Z"/>
      <path class="cls-7" d="M83.8,90.98c-.39,7.2-5.53,15.61-10.05,15.64-3.97,.03-9.32-8.64-9.58-15.43-.01-.46-1.39-.46-1.37,0,.27,7.27,5.59,17.11,10.95,17.08,5.42-.03,10.74-9.13,11.42-17.29,.04-.45-1.35-.45-1.38,0Z"/>
      <g>
        <path class="cls-7" d="M98.53,64.19c4.68-.14,8.65,4.09,8.65,8.81,0,5.12-3.3,8.81-8.12,8.81s-8.93-3.22-8.93-8.81c0-4.55,2.97-8.66,8.4-8.81Z"/>
        <path class="cls-7" d="M49.39,64.54c5,0,8.21,4.05,8.21,8.33,0,5.03-3.02,9.29-8.33,9.29s-8.57-4.09-8.57-8.58c0-5.12,3.79-9.05,8.7-9.05Z"/>
        <path class="cls-2" d="M97.57,65.23c2.43,0,3.95,1.87,3.95,3.85s-1.58,3.79-3.63,3.79c-2.44,0-4-1.97-4-3.67,0-2.02,1.5-3.97,3.68-3.97Z"/>
        <path class="cls-2" d="M50.96,65.68c1.98,0,3.62,1.68,3.62,3.9s-1.46,3.97-3.62,3.97c-2.41,0-3.86-2.01-3.86-3.96,0-2.49,1.99-3.92,3.85-3.92Z"/>
      </g>
    </g>
  </g>
</svg>
